<svg width="100" height="38" viewBox="0 0 100 38" fill="none" xmlns="http://www.w3.org/2000/svg">
<path d="M1.08025 29.3867H0.603359V30.4187H0V27.8314H0.603359V28.8778H1.08888L1.85027 27.8314H2.49957L1.56009 29.0762L2.55989 30.413H1.85027L1.08025 29.3867Z" fill="white"/>
<path d="M3.35301 30.2835C3.14826 30.1756 2.97802 30.0122 2.86174 29.812C2.74681 29.6028 2.68652 29.3679 2.68652 29.1292C2.68652 28.8905 2.74681 28.6557 2.86174 28.4465C2.97893 28.2477 3.14901 28.0855 3.35301 27.9779C3.56989 27.8637 3.81181 27.8054 4.05688 27.8083C4.30478 27.8047 4.54966 27.863 4.76938 27.9779C4.97259 28.0856 5.14173 28.2478 5.25778 28.4465C5.37454 28.6551 5.43587 28.8901 5.43587 29.1292C5.43587 29.3683 5.37454 29.6034 5.25778 29.812C5.14264 30.0121 4.97334 30.1755 4.76938 30.2835C4.55015 30.3997 4.30493 30.458 4.05688 30.4531C3.81163 30.4576 3.56932 30.3992 3.35301 30.2835ZM4.60848 29.7085C4.74954 29.5463 4.82725 29.3385 4.82725 29.1235C4.82725 28.9084 4.74954 28.7007 4.60848 28.5385C4.5372 28.4649 4.45128 28.4072 4.35625 28.369C4.26121 28.3309 4.1592 28.3132 4.05688 28.3171C3.95543 28.3133 3.85434 28.3311 3.76025 28.3693C3.66616 28.4074 3.58122 28.4651 3.51104 28.5385C3.37219 28.7017 3.29591 28.9091 3.29591 29.1235C3.29591 29.3378 3.37219 29.5453 3.51104 29.7085C3.58122 29.7819 3.66616 29.8396 3.76025 29.8778C3.85434 29.9159 3.95543 29.9337 4.05688 29.9299C4.15878 29.9345 4.26053 29.9177 4.35554 29.8806C4.45056 29.8434 4.5367 29.7868 4.60848 29.7143V29.7085Z" fill="white"/>
<path d="M8.56526 30.4187V28.6939L7.70336 30.1313H7.44194L6.58004 28.6939V30.4187H6.03125V27.8314H6.66337L7.57984 29.447L8.54225 27.8314H9.11685V30.4187H8.56526Z" fill="white"/>
<path d="M12.3972 27.837V30.4244H11.8082V28.3574H10.5355V30.4244H9.93213V27.837H12.3972Z" fill="white"/>
<path d="M15.5436 27.837V30.4244H14.9402V28.3574H13.9749L13.9491 28.869C13.9412 29.1586 13.9095 29.4471 13.8543 29.7315C13.8235 29.9306 13.7424 30.1187 13.6187 30.2777C13.5626 30.3435 13.4923 30.3957 13.4132 30.4305C13.3342 30.4654 13.2482 30.4819 13.1619 30.479C13.0491 30.4755 12.9371 30.4581 12.8286 30.4272L12.8573 29.9184C12.8958 29.9282 12.9354 29.933 12.9751 29.9328C13.0299 29.937 13.0847 29.9254 13.133 29.8994C13.1814 29.8735 13.2213 29.8341 13.2481 29.7862C13.3136 29.6785 13.3548 29.5578 13.3687 29.4326C13.3859 29.2946 13.4004 29.0991 13.4147 28.8576L13.4578 27.86L15.5436 27.837Z" fill="white"/>
<path d="M18.77 29.3233H16.7589C16.7748 29.4137 16.8084 29.5001 16.8577 29.5776C16.907 29.655 16.9711 29.722 17.0462 29.7746C17.2086 29.8901 17.4045 29.9487 17.6036 29.9414C17.7339 29.9446 17.8636 29.9207 17.9842 29.8712C18.1049 29.8217 18.214 29.7478 18.3046 29.6539L18.6293 30.0276C18.5121 30.1681 18.3607 30.2761 18.1897 30.341C17.9983 30.415 17.7944 30.451 17.5893 30.4473C17.3301 30.4535 17.0734 30.3953 16.8423 30.2777C16.6339 30.1718 16.4603 30.0081 16.3424 29.8062C16.2223 29.5985 16.1607 29.362 16.1642 29.1221C16.1608 28.8846 16.2203 28.6505 16.3366 28.4436C16.4481 28.2447 16.6134 28.0813 16.8135 27.9721C17.023 27.8616 17.2562 27.8038 17.493 27.8038C17.7298 27.8038 17.963 27.8616 18.1724 27.9721C18.3685 28.0815 18.5298 28.2439 18.6379 28.4407C18.7508 28.656 18.8081 28.8962 18.8045 29.1393C18.7816 29.1882 18.7758 29.2457 18.77 29.3233ZM16.9859 28.4608C16.8505 28.5775 16.7634 28.7405 16.7417 28.918H18.2041C18.185 28.7424 18.1009 28.5804 17.9685 28.4637C17.8287 28.3527 17.6556 28.2923 17.4772 28.2923C17.2988 28.2923 17.1256 28.3527 16.9859 28.4637V28.4608Z" fill="white"/>
<path d="M20.514 29.3867H20.0457V30.4187H19.4424V27.8314H20.0457V28.8778H20.5284L21.2926 27.8314H21.939L21.0024 29.0762L22.0022 30.413H21.2897L20.514 29.3867Z" fill="white"/>
<path d="M24.4499 28.3516H23.5449V30.4186H22.9415V28.3516H22.0337V27.837H24.4499V28.3516Z" fill="white"/>
<path d="M26.7105 28.0814C26.8168 28.1893 26.8986 28.3189 26.9507 28.4612C27.0027 28.6035 27.0236 28.7553 27.0121 28.9065V30.4186H26.4375V30.1052C26.3592 30.22 26.2495 30.3099 26.1215 30.364C25.9637 30.4275 25.7945 30.4578 25.6245 30.4531C25.4509 30.4574 25.2784 30.4241 25.1188 30.3554C24.981 30.2946 24.8641 30.1946 24.7827 30.0679C24.7022 29.9503 24.66 29.8107 24.662 29.6682C24.6584 29.5615 24.6799 29.4555 24.7249 29.3586C24.7698 29.2617 24.8368 29.1767 24.9206 29.1106C25.1612 28.9508 25.4487 28.8769 25.7365 28.9007H26.4031V28.8605C26.4077 28.784 26.3956 28.7073 26.3679 28.6359C26.3401 28.5644 26.2972 28.4998 26.2422 28.4465C26.1049 28.3396 25.933 28.2874 25.7595 28.2998C25.6141 28.3001 25.4696 28.3233 25.3314 28.3688C25.2024 28.407 25.0823 28.4705 24.9781 28.5557L24.7396 28.1159C24.8862 28.0075 25.0519 27.9275 25.228 27.8801C25.4242 27.8241 25.6273 27.796 25.8313 27.7967C26.1498 27.7769 26.464 27.8786 26.7105 28.0814ZM26.1588 29.9098C26.2724 29.8451 26.3606 29.7437 26.4088 29.6223V29.3204H25.7853C25.4377 29.3204 25.2625 29.4354 25.2625 29.6654C25.261 29.7165 25.2723 29.7673 25.2954 29.813C25.3185 29.8586 25.3526 29.8979 25.3946 29.927C25.5022 29.9962 25.629 30.0294 25.7566 30.0218C25.9033 30.0246 26.0477 29.9858 26.1732 29.9098H26.1588Z" fill="white"/>
<path d="M30.5919 29.907V31.0138H30.0173V30.4187H27.7505V27.8314H28.3538V29.9013H29.5863V27.8314H30.1897V29.9013L30.5919 29.907Z" fill="white"/>
<path d="M31.1289 27.8083H31.7322V29.5103L33.1687 27.8083H33.7203V30.3957H33.1169V28.6938L31.6804 30.3957H31.126L31.1289 27.8083Z" fill="white"/>
<path d="M36.7002 27.837V30.4244H36.1601V29.6482H35.4792L34.9506 30.4244H34.3042L34.9132 29.5619C34.7446 29.512 34.5952 29.4117 34.4852 29.2744C34.384 29.1288 34.3326 28.9544 34.3386 28.7771C34.3317 28.6462 34.3566 28.5156 34.4111 28.3964C34.4656 28.2773 34.5482 28.1731 34.6518 28.0929C34.9037 27.9171 35.2072 27.8311 35.5137 27.8485L36.7002 27.837ZM34.9506 28.7857C34.9506 29.0732 35.1402 29.2198 35.5252 29.2198H36.1688V28.3574H35.5454C35.1489 28.3497 34.9506 28.4925 34.9506 28.7857Z" fill="white"/>
<path d="M0.00878906 33.6383H0.612148V35.3402L2.04865 33.6383H2.60024V36.2256H1.99695V34.5266L0.577638 36.2256H0.0202923L0.00878906 33.6383Z" fill="white"/>
<path d="M3.40186 33.6383H4.00521V34.6876H5.30382V33.6383H5.90711V36.2256H5.30382V35.2079H4.00521V36.2256H3.40186V33.6383Z" fill="white"/>
<path d="M8.7629 34.1529H7.86081V36.2199H7.25745V34.1529H6.34961V33.6383H8.7629V34.1529Z" fill="white"/>
<path d="M11.499 35.1246H9.48787C9.50376 35.215 9.53733 35.3015 9.58663 35.3789C9.63593 35.4564 9.69999 35.5233 9.77517 35.576C9.93844 35.6918 10.1355 35.7505 10.3355 35.7427C10.4654 35.7461 10.5946 35.7222 10.7149 35.6727C10.8351 35.6232 10.9436 35.5491 11.0336 35.4552L11.3582 35.829C11.2411 35.9695 11.0896 36.0774 10.9186 36.1423C10.7011 36.2221 10.4699 36.2576 10.2385 36.2468C10.0071 36.2359 9.78025 36.1789 9.5712 36.079C9.36281 35.9731 9.18928 35.8095 9.0713 35.6076C8.95123 35.3998 8.88971 35.1634 8.89321 34.9234C8.88983 34.686 8.94926 34.4519 9.06555 34.245C9.17054 34.0555 9.32432 33.8977 9.51088 33.7878C9.72132 33.673 9.95783 33.6146 10.1975 33.6182C10.4322 33.6153 10.6637 33.6727 10.8698 33.785C11.0658 33.8943 11.2272 34.0568 11.3353 34.2536C11.4482 34.4689 11.5054 34.709 11.5018 34.9521C11.522 34.9866 11.5047 35.047 11.499 35.1246ZM9.71485 34.2622C9.57946 34.3788 9.49243 34.5418 9.47068 34.7193H10.9359C10.9157 34.5434 10.8307 34.3814 10.6974 34.265C10.5577 34.154 10.3845 34.0936 10.2061 34.0936C10.0277 34.0936 9.85457 34.154 9.71485 34.265V34.2622Z" fill="white"/>
<path d="M14.273 33.788C14.4695 33.8951 14.6318 34.0555 14.7412 34.2508C14.8557 34.4624 14.9132 34.7002 14.9079 34.9408C14.9131 35.1831 14.8557 35.4227 14.7412 35.6364C14.6319 35.8326 14.4697 35.994 14.273 36.1022C14.0666 36.2134 13.8351 36.2699 13.6007 36.2661C13.4456 36.2734 13.2908 36.2459 13.1476 36.1857C13.0045 36.1255 12.8766 36.0341 12.7733 35.9182V37.1716H12.1699V33.65H12.7445V33.9892C12.8431 33.8648 12.9702 33.7662 13.1152 33.7017C13.2694 33.6393 13.4343 33.608 13.6007 33.6097C13.8365 33.6089 14.0684 33.6704 14.273 33.788ZM14.0804 35.5272C14.2193 35.364 14.2956 35.1565 14.2956 34.9422C14.2956 34.7278 14.2193 34.5204 14.0804 34.3572C14.0097 34.2837 13.9243 34.2259 13.8298 34.1878C13.7352 34.1497 13.6336 34.1319 13.5317 34.1358C13.3951 34.1332 13.2603 34.167 13.141 34.2336C13.0203 34.3007 12.9208 34.4003 12.8537 34.521C12.7851 34.6522 12.7506 34.7985 12.7531 34.9465C12.7496 35.0946 12.7842 35.2411 12.8537 35.372C12.9203 35.4931 13.0199 35.5928 13.141 35.6595C13.2603 35.726 13.3951 35.7598 13.5317 35.7572C13.6353 35.7582 13.738 35.7368 13.8326 35.6946C13.9273 35.6525 14.0118 35.5905 14.0804 35.5128V35.5272Z" fill="white"/>
<path d="M17.5548 34.7135C17.6436 34.7909 17.7137 34.8876 17.7595 34.9962C17.8053 35.1048 17.8257 35.2225 17.8191 35.3402C17.8261 35.4647 17.8037 35.5892 17.7538 35.7036C17.7039 35.8179 17.6278 35.919 17.5318 35.9985C17.2942 36.1663 17.0059 36.2465 16.7159 36.2256H15.5063V33.6383H16.1096V34.4864H16.802C17.0718 34.4712 17.3383 34.5516 17.5548 34.7135ZM17.0635 35.6708C17.1116 35.6291 17.1494 35.5767 17.1738 35.5178C17.1983 35.4589 17.2087 35.3952 17.2043 35.3316C17.2087 35.2715 17.1988 35.2112 17.1753 35.1557C17.1518 35.1002 17.1155 35.0511 17.0692 35.0125C16.9467 34.935 16.803 34.8978 16.6584 34.9061H16.1068V35.7829H16.6584C16.8046 35.7996 16.9517 35.7595 17.0692 35.6708H17.0635Z" fill="white"/>
<path d="M20.7607 35.1247H18.7496C18.7834 35.3066 18.8864 35.4684 19.0369 35.576C19.1993 35.6915 19.3952 35.7501 19.5943 35.7428C19.7247 35.746 19.8542 35.7221 19.9749 35.6726C20.0956 35.6231 20.2047 35.5492 20.2953 35.4553L20.6199 35.8291C20.5022 35.9689 20.3509 36.0767 20.1803 36.1424C19.9889 36.2163 19.7851 36.2525 19.5799 36.2488C19.3207 36.255 19.064 36.1967 18.8329 36.0791C18.6245 35.9732 18.451 35.8096 18.333 35.6077C18.2129 35.3999 18.1514 35.1634 18.1549 34.9234C18.1516 34.686 18.211 34.452 18.3273 34.245C18.4388 34.0461 18.6041 33.8827 18.8042 33.7735C19.0137 33.663 19.2469 33.6052 19.4837 33.6052C19.7205 33.6052 19.9537 33.663 20.1632 33.7735C20.359 33.8822 20.5195 34.0449 20.6257 34.2422C20.7394 34.4572 20.7967 34.6975 20.7923 34.9407C20.777 34.9867 20.7664 35.048 20.7607 35.1247ZM18.9766 34.2622C18.8412 34.3789 18.7542 34.5419 18.7324 34.7193H20.1947C20.1756 34.5438 20.0916 34.3818 19.9592 34.2651C19.8195 34.1541 19.6462 34.0937 19.4678 34.0937C19.2894 34.0937 19.1163 34.1541 18.9766 34.2651V34.2622Z" fill="white"/>
<path d="M23.5362 33.788C23.733 33.8937 23.8947 34.0546 24.0016 34.2508C24.1183 34.4617 24.1768 34.6998 24.1711 34.9408C24.1767 35.1835 24.1183 35.4235 24.0016 35.6364C23.8942 35.8331 23.7327 35.9947 23.5362 36.1022C23.3298 36.2134 23.0983 36.2699 22.8639 36.2661C22.7087 36.2736 22.5539 36.2462 22.4107 36.186C22.2676 36.1258 22.1397 36.0343 22.0365 35.9182V37.1716H21.4331V33.65H22.0077V33.9892C22.1062 33.8648 22.2334 33.7662 22.3783 33.7017C22.5325 33.6393 22.6975 33.608 22.8639 33.6097C23.0997 33.6089 23.3316 33.6704 23.5362 33.788ZM23.3436 35.5272C23.4825 35.364 23.5587 35.1565 23.5587 34.9422C23.5587 34.7278 23.4825 34.5204 23.3436 34.3572C23.2728 34.2838 23.1873 34.2262 23.0928 34.1881C22.9983 34.1499 22.8968 34.1321 22.7949 34.1358C22.6583 34.1332 22.5235 34.167 22.4041 34.2336C22.2822 34.299 22.1823 34.399 22.1168 34.521C22.0474 34.6519 22.0128 34.7984 22.0163 34.9465C22.0117 35.0947 22.0464 35.2415 22.1168 35.372C22.1817 35.4944 22.2818 35.5945 22.4041 35.6595C22.5235 35.726 22.6583 35.7598 22.7949 35.7572C22.8985 35.758 23.001 35.7365 23.0957 35.6944C23.1903 35.6523 23.2748 35.5903 23.3436 35.5128V35.5272Z" fill="white"/>
<path d="M25.2173 36.0878C25.0125 35.9799 24.8423 35.8166 24.726 35.6164C24.6111 35.4072 24.5508 35.1723 24.5508 34.9336C24.5508 34.6949 24.6111 34.46 24.726 34.2509C24.8432 34.0521 25.0133 33.8898 25.2173 33.7822C25.4339 33.6673 25.6761 33.6089 25.9212 33.6126C26.1682 33.609 26.4121 33.6673 26.6308 33.7822C26.8348 33.8898 27.0049 34.0521 27.1221 34.2509C27.237 34.46 27.2972 34.6949 27.2972 34.9336C27.2972 35.1723 27.237 35.4072 27.1221 35.6164C27.0058 35.8166 26.8356 35.9799 26.6308 36.0878C26.4128 36.2045 26.1684 36.263 25.9212 36.2575C25.676 36.262 25.4336 36.2036 25.2173 36.0878ZM26.4728 35.5129C26.6139 35.3506 26.6916 35.1429 26.6916 34.9279C26.6916 34.7128 26.6139 34.505 26.4728 34.3428C26.4012 34.2697 26.3152 34.2122 26.2202 34.1741C26.1253 34.136 26.0235 34.1181 25.9212 34.1214C25.8193 34.1178 25.7178 34.1356 25.6232 34.1737C25.5287 34.2119 25.4433 34.2695 25.3724 34.3428C25.2336 34.5061 25.1574 34.7135 25.1574 34.9279C25.1574 35.1422 25.2336 35.3496 25.3724 35.5129C25.4433 35.5862 25.5287 35.6438 25.6232 35.6819C25.7178 35.7201 25.8193 35.7379 25.9212 35.7342C26.0215 35.736 26.1212 35.7173 26.2141 35.6792C26.3069 35.6411 26.391 35.5845 26.4613 35.5129H26.4728Z" fill="white"/>
<path d="M30.2389 35.4955C30.2439 35.5996 30.2228 35.7033 30.1777 35.7971C30.1325 35.891 30.0647 35.9721 29.9804 36.0332C29.7481 36.1735 29.4783 36.2387 29.2076 36.22H27.8975V33.6327H29.1587C29.4165 33.6188 29.6729 33.6797 29.8971 33.8081C29.9816 33.8592 30.0509 33.932 30.0979 34.0189C30.1448 34.1058 30.1677 34.2038 30.1642 34.3025C30.1669 34.4247 30.1308 34.5445 30.0608 34.6446C29.9879 34.7454 29.8885 34.8241 29.7735 34.8717C29.9128 34.903 30.0362 34.983 30.1216 35.0974C30.2069 35.2119 30.2486 35.3531 30.2389 35.4955ZM28.4663 34.7165H29.1012C29.4115 34.7165 29.5696 34.6101 29.5696 34.3945C29.5696 34.1789 29.4115 34.0783 29.1012 34.0783H28.4721L28.4663 34.7165ZM29.6558 35.4582C29.66 35.4093 29.6517 35.3601 29.6316 35.3153C29.6115 35.2705 29.5802 35.2316 29.5408 35.2023C29.4303 35.1386 29.3032 35.1096 29.1759 35.1189H28.4721V35.7801H29.1644C29.4891 35.7801 29.6558 35.6738 29.6558 35.4582Z" fill="white"/>
<path d="M43.2011 27.7507H43.8045V29.4756L45.241 27.7738H45.7926V30.3611H45.1892V28.6591L43.7527 30.3611H43.1982L43.2011 27.7507Z" fill="white"/>
<path d="M48.4766 29.2199C48.5641 29.3211 48.6112 29.4511 48.6088 29.5849C48.609 29.7391 48.5516 29.8878 48.4479 30.0018C48.3287 30.134 48.1772 30.233 48.0084 30.2893C47.8036 30.3613 47.5876 30.3963 47.3706 30.3928C47.1768 30.3928 46.9838 30.3686 46.796 30.3209C46.6154 30.2784 46.4415 30.2117 46.2788 30.1225L46.4541 29.6712C46.587 29.7463 46.7303 29.8016 46.8793 29.8351C47.0332 29.8751 47.1915 29.8954 47.3504 29.8954C47.5148 29.9038 47.6787 29.8712 47.8274 29.8005C47.8779 29.7785 47.921 29.7424 47.9515 29.6965C47.9821 29.6506 47.9988 29.5969 47.9997 29.5418C48.0007 29.4943 47.9887 29.4475 47.9649 29.4064C47.9411 29.3654 47.9064 29.3316 47.8647 29.3089C47.7503 29.2472 47.621 29.2183 47.4912 29.2256H46.9884V28.8202H47.4338C47.5573 28.8268 47.6804 28.8 47.79 28.7426C47.8289 28.7219 47.8614 28.6908 47.8837 28.6527C47.906 28.6146 47.9173 28.5711 47.9164 28.527C47.916 28.4788 47.9013 28.4317 47.8743 28.3918C47.8472 28.3519 47.8088 28.3209 47.7641 28.3028C47.6307 28.2427 47.485 28.2151 47.3389 28.2223C47.056 28.2267 46.7771 28.2904 46.5202 28.4092L46.3679 27.9636C46.6875 27.8112 47.0367 27.7307 47.3907 27.7278C47.5906 27.7243 47.7896 27.7545 47.9796 27.8169C48.1351 27.8647 48.2756 27.9519 48.3876 28.07C48.4841 28.168 48.5378 28.3003 48.537 28.4379C48.5381 28.5603 48.4964 28.6793 48.4192 28.7743C48.3347 28.8774 48.2248 28.9567 48.1003 29.0043C48.2442 29.0376 48.375 29.1126 48.4766 29.2199Z" fill="white"/>
<path d="M51.2177 28.2742H49.8416V30.344H49.2383V27.7567H51.2177V28.2742Z" fill="white"/>
<path d="M51.99 30.2088C51.7858 30.1002 51.6157 29.9369 51.4987 29.7373C51.3802 29.5291 51.3197 29.2928 51.3235 29.0532C51.319 28.8134 51.3795 28.5769 51.4987 28.3689C51.6167 28.1708 51.7866 28.0088 51.99 27.9004C52.2094 27.7888 52.4521 27.7306 52.6982 27.7306C52.9443 27.7306 53.187 27.7888 53.4064 27.9004C53.6095 28.0082 53.7786 28.1704 53.8948 28.3689C54.0149 28.5767 54.0765 28.8132 54.073 29.0532C54.0757 29.2931 54.0142 29.5293 53.8948 29.7373C53.7797 29.9374 53.6104 30.1009 53.4064 30.2088C53.1864 30.3185 52.944 30.3755 52.6982 30.3755C52.4524 30.3755 52.21 30.3185 51.99 30.2088ZM53.2455 29.6339C53.3866 29.4717 53.4643 29.2638 53.4643 29.0488C53.4643 28.8338 53.3866 28.626 53.2455 28.4638C53.0982 28.3215 52.9015 28.242 52.6968 28.242C52.4921 28.242 52.2953 28.3215 52.148 28.4638C52.0091 28.6271 51.9329 28.8344 51.9329 29.0488C51.9329 29.2632 52.0091 29.4706 52.148 29.6339C52.2953 29.7762 52.4921 29.8557 52.6968 29.8557C52.9015 29.8557 53.0982 29.7762 53.2455 29.6339Z" fill="white"/>
<path d="M56.6277 28.274H55.7256V30.3438H55.1222V28.274H54.2144V27.7507H56.6277V28.274Z" fill="white"/>
<path d="M57.3887 30.2089C57.1845 30.1002 57.0145 29.937 56.8975 29.7374C56.7781 29.5293 56.7166 29.2931 56.7194 29.0532C56.7159 28.8132 56.7774 28.5767 56.8975 28.3689C57.0155 28.1709 57.1854 28.0089 57.3887 27.9004C57.6054 27.7855 57.8475 27.7271 58.0927 27.7308C58.3397 27.7271 58.5836 27.7855 58.8023 27.9004C59.0057 28.0089 59.1756 28.1709 59.2936 28.3689C59.4128 28.577 59.4733 28.8135 59.4688 29.0532C59.4726 29.2928 59.4121 29.5291 59.2936 29.7374C59.1766 29.937 59.0065 30.1002 58.8023 30.2089C58.5834 30.3228 58.3394 30.3801 58.0927 30.3756C57.8478 30.3801 57.6056 30.3228 57.3887 30.2089ZM58.6443 29.6339C58.7831 29.4706 58.8594 29.2632 58.8594 29.0488C58.8594 28.8345 58.7831 28.6271 58.6443 28.4638C58.5723 28.3913 58.4862 28.3342 58.3913 28.2962C58.2965 28.2581 58.1949 28.2398 58.0927 28.2425C57.9909 28.2395 57.8896 28.2577 57.7951 28.2957C57.7007 28.3338 57.6152 28.3911 57.5439 28.4638C57.405 28.6271 57.3288 28.8345 57.3288 29.0488C57.3288 29.2632 57.405 29.4706 57.5439 29.6339C57.6147 29.7072 57.7002 29.7648 57.7947 29.803C57.8893 29.8411 57.9908 29.8589 58.0927 29.8553C58.1938 29.8582 58.2944 29.8403 58.3883 29.8027C58.4822 29.7651 58.5673 29.7087 58.6385 29.6368L58.6443 29.6339Z" fill="white"/>
<path d="M62.4104 29.6166C62.4154 29.7207 62.3943 29.8244 62.3492 29.9182C62.304 30.0121 62.2362 30.0932 62.1519 30.1543C61.92 30.2958 61.6501 30.3621 61.3791 30.344H60.0747V27.7567H61.3359C61.5935 27.7421 61.8498 27.802 62.0743 27.9292C62.1588 27.9803 62.2281 28.0531 62.2751 28.14C62.3221 28.2269 62.345 28.3249 62.3415 28.4236C62.3442 28.5458 62.308 28.6656 62.2381 28.7657C62.1652 28.8666 62.0657 28.9452 61.9508 28.9928C62.089 29.0253 62.2111 29.1058 62.2953 29.2201C62.3795 29.3344 62.4203 29.475 62.4104 29.6166ZM60.6378 28.8405H61.2727C61.583 28.8405 61.7411 28.7312 61.7411 28.5156C61.7411 28.3 61.583 28.2023 61.2727 28.2023H60.6493L60.6378 28.8405ZM61.8273 29.5793C61.831 29.5309 61.8225 29.4822 61.8024 29.438C61.7823 29.3937 61.7513 29.3553 61.7123 29.3263C61.6026 29.2602 61.4751 29.2301 61.3474 29.24H60.6493V29.9041H61.3417C61.6606 29.9041 61.8273 29.7949 61.8273 29.5793Z" fill="white"/>
<path d="M65.3922 27.7507V30.3381H64.7889V28.2682H63.8236L63.7977 28.7799C63.7895 29.0695 63.7577 29.3579 63.7029 29.6424C63.671 29.8412 63.59 30.0289 63.4673 30.1886C63.4109 30.2538 63.3406 30.3055 63.2615 30.3398C63.1825 30.3741 63.0966 30.3902 63.0105 30.3869C62.8977 30.3834 62.7858 30.3661 62.6772 30.3352L62.7059 29.8263C62.7435 29.8359 62.7821 29.8408 62.8209 29.8407C62.8777 29.846 62.9349 29.835 62.9857 29.8091C63.0366 29.7831 63.0791 29.7432 63.1082 29.6941C63.1738 29.5865 63.2149 29.4658 63.2288 29.3405C63.2461 29.2054 63.2604 29.0099 63.2748 28.7655L63.3179 27.7709L65.3922 27.7507Z" fill="white"/>
<path d="M68.6109 29.2457H66.5854C66.6193 29.4277 66.7223 29.5895 66.8727 29.6971C67.0351 29.8125 67.2311 29.8711 67.4302 29.8638C67.5605 29.8672 67.6902 29.8434 67.8109 29.7939C67.9316 29.7444 68.0406 29.6703 68.1311 29.5764L68.4558 29.9471C68.3386 30.0877 68.1872 30.1957 68.0162 30.2605C67.7987 30.34 67.5677 30.3756 67.3364 30.3652C67.1052 30.3549 66.8782 30.2988 66.6688 30.2002C66.4609 30.0935 66.2876 29.9299 66.1689 29.7287C66.0539 29.5195 65.9937 29.2846 65.9937 29.0459C65.9937 28.8072 66.0539 28.5723 66.1689 28.3631C66.2813 28.1649 66.4464 28.0017 66.6458 27.8917C66.8553 27.7812 67.0885 27.7234 67.3253 27.7234C67.5621 27.7234 67.7953 27.7812 68.0048 27.8917C68.2007 28.0015 68.3612 28.1651 68.4673 28.3631C68.5831 28.5774 68.6415 28.8182 68.6368 29.0618C68.6224 29.1078 68.6167 29.1681 68.6109 29.2457ZM66.8268 28.3833C66.6914 28.4999 66.6043 28.6629 66.5826 28.8404H68.0449C68.0258 28.6649 67.9418 28.5028 67.8093 28.3862C67.6719 28.269 67.4956 28.2075 67.3152 28.2137C67.1368 28.2098 66.9632 28.2711 66.8268 28.3862V28.3833Z" fill="white"/>
<path d="M69.2832 27.7507H69.8865V28.7971H71.1851V27.7507H71.7913V30.3381H71.1851V29.3175H69.8865V30.3381H69.2832V27.7507Z" fill="white"/>
<path d="M72.6016 27.7507H73.2049V29.4756L74.6414 27.7738H75.193V30.3611H74.5897V28.6591L73.1704 30.3611H72.613L72.6016 27.7507Z" fill="white"/>
<path d="M78.3983 29.2457H76.3872C76.4031 29.3361 76.4367 29.4225 76.486 29.5C76.5353 29.5774 76.5993 29.6444 76.6745 29.6971C76.8369 29.8125 77.0328 29.8711 77.2318 29.8638C77.3622 29.8672 77.4919 29.8434 77.6126 29.7939C77.7333 29.7444 77.8423 29.6703 77.9328 29.5764L78.2575 29.9471C78.1404 30.0877 77.989 30.1957 77.8179 30.2605C77.6005 30.34 77.3695 30.3756 77.1382 30.3652C76.9069 30.3549 76.68 30.2988 76.4705 30.2002C76.2627 30.0935 76.0894 29.9299 75.9706 29.7287C75.8557 29.5195 75.7954 29.2846 75.7954 29.0459C75.7954 28.8072 75.8557 28.5723 75.9706 28.3631C76.083 28.1649 76.2481 28.0017 76.4475 27.8917C76.657 27.7812 76.8902 27.7234 77.127 27.7234C77.3638 27.7234 77.597 27.7812 77.8064 27.8917C78.0026 28.0022 78.1639 28.1655 78.2719 28.3631C78.3856 28.5781 78.4429 28.8185 78.4385 29.0618C78.4098 29.1078 78.404 29.1681 78.3983 29.2457ZM76.6142 28.3833C76.4788 28.4999 76.3917 28.6629 76.3699 28.8404H77.8323C77.8132 28.6649 77.7292 28.5028 77.5967 28.3862C77.4593 28.269 77.283 28.2075 77.1026 28.2137C76.9242 28.2098 76.7506 28.2711 76.6142 28.3862V28.3833Z" fill="white"/>
<path d="M83.492 30.2952V28.5703L82.6301 30.0077H82.3687L81.5068 28.5703V30.2952H80.958V27.7079H81.5901L82.5066 29.3206L83.469 27.7079H84.0436V30.2952H83.492Z" fill="white"/>
<path d="M87.2564 29.1881H85.2453C85.2605 29.2788 85.2937 29.3655 85.3431 29.443C85.3924 29.5206 85.4569 29.5874 85.5326 29.6395C85.6948 29.7553 85.8909 29.8139 86.09 29.8062C86.2203 29.8092 86.3499 29.7853 86.4705 29.7358C86.5912 29.6864 86.7003 29.6124 86.791 29.5187L87.1128 29.8895C86.995 30.0301 86.8439 30.1389 86.6732 30.2058C86.4824 30.2784 86.2797 30.3145 86.0756 30.3121C85.8156 30.3173 85.5582 30.2591 85.3257 30.1426C85.1179 30.0359 84.9446 29.8723 84.8258 29.6711C84.7069 29.4629 84.6464 29.2266 84.6506 28.9869C84.6463 28.7488 84.7047 28.5138 84.8201 28.3055C84.9325 28.1073 85.0976 27.9441 85.297 27.8341C85.5079 27.7205 85.7443 27.6631 85.9837 27.6673C86.2185 27.6631 86.4503 27.7206 86.656 27.8341C86.8526 27.9427 87.014 28.1053 87.1214 28.3027C87.2351 28.5177 87.2924 28.7581 87.288 29.0013C87.281 29.0641 87.2705 29.1265 87.2564 29.1881ZM85.4723 28.3257C85.3373 28.4415 85.2503 28.6034 85.2281 28.7799H86.6933C86.6731 28.6026 86.5867 28.4394 86.4514 28.3232C86.316 28.207 86.1418 28.1462 85.9636 28.1532C85.7824 28.1525 85.6073 28.2191 85.4723 28.3401V28.3257Z" fill="white"/>
<path d="M89.9741 27.9952C90.1568 28.0983 90.3079 28.2494 90.4108 28.4322C90.5168 28.63 90.5702 28.8518 90.5659 29.0762C90.57 29.3082 90.5104 29.5368 90.3936 29.7373C90.2764 29.9292 90.107 30.0838 89.9052 30.1829C89.6829 30.2927 89.4377 30.3479 89.1898 30.3439C88.9943 30.3547 88.7989 30.3201 88.619 30.2428C88.4391 30.1655 88.2795 30.0476 88.1526 29.8983C87.8836 29.5273 87.7534 29.0735 87.7849 28.6162C87.7624 28.1801 87.8792 27.7482 88.1182 27.3829C88.3704 27.0617 88.7348 26.848 89.1381 26.7849L90.3361 26.5291L90.4223 27.0695L89.3363 27.2908C89.0757 27.3311 88.8322 27.446 88.6353 27.6215C88.4703 27.7998 88.3745 28.0313 88.3652 28.2741C88.4789 28.1364 88.6223 28.0263 88.7847 27.9521C88.9543 27.8752 89.1386 27.836 89.3248 27.8371C89.5512 27.8334 89.7748 27.8879 89.9741 27.9952ZM89.7443 29.6396C89.8816 29.4904 89.9549 29.2932 89.9483 29.0905C89.9542 28.9914 89.939 28.8922 89.9036 28.7995C89.8682 28.7068 89.8135 28.6227 89.7431 28.5528C89.6727 28.4829 89.5882 28.4288 89.4953 28.3941C89.4024 28.3594 89.3031 28.345 89.2041 28.3517C89.1043 28.3472 89.0047 28.3626 88.9109 28.3972C88.8172 28.4317 88.7313 28.4847 88.6583 28.5529C88.5888 28.6235 88.5345 28.7077 88.4989 28.8002C88.4633 28.8927 88.4472 28.9915 88.4514 29.0905C88.4473 29.1919 88.4637 29.2931 88.4998 29.388C88.5358 29.4829 88.5907 29.5695 88.6612 29.6425C88.7324 29.7131 88.8173 29.7684 88.9107 29.805C89.004 29.8415 89.1039 29.8587 89.2041 29.8552C89.3042 29.8593 89.4041 29.8422 89.4972 29.805C89.5903 29.7679 89.6745 29.7115 89.7443 29.6396Z" fill="white"/>
<path d="M93.5567 29.1881H91.5456C91.5608 29.2788 91.594 29.3655 91.6433 29.443C91.6927 29.5206 91.7572 29.5874 91.8329 29.6395C91.9951 29.7553 92.1912 29.8139 92.3903 29.8062C92.5206 29.8092 92.6502 29.7853 92.7709 29.7358C92.8915 29.6864 93.0006 29.6124 93.0913 29.5187L93.4131 29.8895C93.2953 30.0301 93.1442 30.1389 92.9735 30.2058C92.7827 30.2784 92.58 30.3145 92.3759 30.3121C92.1159 30.3173 91.8586 30.2591 91.6261 30.1426C91.4183 30.0359 91.2449 29.8723 91.1262 29.6711C91.0073 29.4629 90.9467 29.2266 90.9509 28.9869C90.9466 28.7488 91.0051 28.5138 91.1204 28.3055C91.2328 28.1073 91.3979 27.9441 91.5973 27.8341C91.8081 27.7205 92.0446 27.6631 92.284 27.6673C92.5188 27.6631 92.7506 27.7206 92.9563 27.8341C93.1487 27.9519 93.3033 28.1225 93.4016 28.3257C93.5153 28.5407 93.5727 28.781 93.5682 29.0242C93.5671 29.079 93.5633 29.1337 93.5567 29.1881ZM91.7726 28.3257C91.6368 28.4407 91.5495 28.6031 91.5284 28.7799H92.9936C92.9735 28.6026 92.8871 28.4394 92.7517 28.3232C92.6164 28.207 92.4421 28.1462 92.2639 28.1532C92.0826 28.1519 91.9074 28.2186 91.7726 28.3401V28.3257Z" fill="white"/>
<path d="M96.5333 27.7134V30.3007H95.93V28.2308H94.9647L94.9389 28.7425C94.9302 29.0319 94.8994 29.3202 94.8469 29.6049C94.8128 29.8037 94.731 29.9911 94.6084 30.1512C94.5523 30.217 94.4821 30.2692 94.403 30.304C94.3239 30.3388 94.238 30.3554 94.1517 30.3524C94.0388 30.3478 93.9268 30.3295 93.8184 30.2978L93.8471 29.7919C93.8863 29.7954 93.9257 29.7954 93.9649 29.7919C94.0197 29.7941 94.0741 29.7813 94.1221 29.755C94.1702 29.7287 94.2102 29.6897 94.2378 29.6424C94.3043 29.5352 94.3457 29.4143 94.3585 29.2888C94.3758 29.1536 94.3901 28.9582 94.4045 28.7138L94.4475 27.7191L96.5333 27.7134Z" fill="white"/>
<path d="M97.3461 27.7134H97.9495V29.4152L99.386 27.7134H99.9376V30.3007H99.3342V28.5988L97.8977 30.3007H97.3433L97.3461 27.7134Z" fill="white"/>
<path d="M43.2017 33.65H43.805V34.6993H45.1064V33.65H45.7098V36.2373H45.1064V35.2254H43.805V36.246H43.2017V33.65Z" fill="white"/>
<path d="M48.356 33.8942C48.4623 34.0016 48.5443 34.1305 48.5964 34.2724C48.6484 34.4143 48.6693 34.5657 48.6577 34.7164V36.2314H48.0831V35.918C48.0061 36.0334 47.8958 36.1227 47.767 36.1739C47.4451 36.3024 47.0862 36.3024 46.7643 36.1739C46.6276 36.1115 46.5111 36.0119 46.4282 35.8865C46.3503 35.7689 46.3093 35.6307 46.3104 35.4897C46.3068 35.3826 46.3283 35.2761 46.3732 35.1787C46.4181 35.0814 46.4852 34.9959 46.569 34.9291C46.8086 34.7694 47.0951 34.6954 47.3821 34.7193H48.0486V34.6819C48.054 34.6049 48.0423 34.5276 48.0145 34.4555C47.9867 34.3835 47.9435 34.3184 47.8877 34.265C47.7514 34.1586 47.5802 34.1073 47.4079 34.1213C47.2626 34.1203 47.118 34.1426 46.9798 34.1874C46.8502 34.2277 46.7293 34.2921 46.6236 34.3772L46.388 33.9373C46.5345 33.828 46.7001 33.747 46.8764 33.6987C47.0728 33.6437 47.2758 33.6166 47.4797 33.6182C47.7961 33.5964 48.1091 33.695 48.356 33.8942ZM47.8044 35.7197C47.9184 35.6565 48.006 35.5545 48.0514 35.4322V35.1447H47.4338C47.0861 35.1447 46.9137 35.2568 46.9137 35.4868C46.9125 35.5377 46.9235 35.5881 46.9461 35.6337C46.9686 35.6792 47.0019 35.7186 47.043 35.7485C47.1506 35.818 47.2771 35.8521 47.405 35.8462C47.5473 35.8422 47.6857 35.7984 47.8044 35.7197Z" fill="white"/>
<path d="M52.6535 35.1074C52.7422 35.2079 52.7894 35.3384 52.7856 35.4725C52.7875 35.6264 52.7311 35.7753 52.6277 35.8893C52.5075 36.0204 52.3563 36.1193 52.1881 36.1768C51.9828 36.2464 51.7671 36.2804 51.5503 36.2774C51.3567 36.2767 51.1639 36.2536 50.9757 36.2084C50.7962 36.1641 50.6233 36.0965 50.4614 36.0072L50.6338 35.5558C50.7674 35.6302 50.9105 35.6863 51.059 35.7226C51.2143 35.7601 51.3733 35.7794 51.5331 35.78C51.6974 35.7884 51.8613 35.7559 52.0099 35.6852C52.0599 35.6627 52.1024 35.6264 52.1325 35.5806C52.1625 35.5347 52.1788 35.4813 52.1795 35.4264C52.1808 35.3793 52.1691 35.3327 52.1458 35.2916C52.1225 35.2506 52.0885 35.2166 52.0473 35.1936C51.9324 35.1334 51.8033 35.1056 51.6738 35.1131H51.1682V34.7049H51.6221C51.7448 34.7118 51.867 34.6849 51.9755 34.6272C52.0152 34.6072 52.0484 34.5763 52.0712 34.5382C52.0941 34.5 52.1058 34.4561 52.1048 34.4116C52.103 34.3633 52.0874 34.3165 52.06 34.2768C52.0325 34.2371 51.9942 34.206 51.9496 34.1874C51.8163 34.1271 51.6705 34.0996 51.5244 34.107C51.2426 34.1129 50.9648 34.1764 50.7085 34.2938L50.5534 33.8511C50.8735 33.6969 51.2237 33.6154 51.579 33.6124C51.774 33.6121 51.9678 33.6422 52.1536 33.7016C52.3088 33.7501 52.4492 33.8371 52.5616 33.9546C52.6567 34.0545 52.7092 34.1875 52.7081 34.3254C52.7096 34.4466 52.6689 34.5644 52.5932 34.6589C52.5539 34.6474 52.5125 34.6459 52.4725 34.6545C52.4326 34.663 52.3953 34.6813 52.3642 34.7077C52.333 34.7342 52.3089 34.768 52.2939 34.8061C52.279 34.8442 52.2738 34.8854 52.2787 34.926C52.2836 34.9666 52.2985 35.0053 52.3221 35.0387C52.3456 35.0722 52.3771 35.0992 52.4137 35.1174C52.4502 35.1357 52.4908 35.1446 52.5317 35.1434C52.5725 35.1421 52.6124 35.1307 52.6477 35.1103L52.6535 35.1074Z" fill="white"/>
<path d="M55.2481 33.8943C55.3544 34.0017 55.4364 34.1306 55.4885 34.2725C55.5405 34.4144 55.5614 34.5658 55.5498 34.7165V36.2315H54.9752V35.9181C54.8982 36.0335 54.7879 36.1228 54.6591 36.174C54.5016 36.2389 54.3323 36.2702 54.1621 36.266C53.9882 36.2694 53.8157 36.2351 53.6564 36.1654C53.5186 36.1047 53.4017 36.0047 53.3203 35.8779C53.2424 35.7604 53.2014 35.6222 53.2025 35.4811C53.1989 35.374 53.2204 35.2675 53.2653 35.1702C53.3102 35.0728 53.3773 34.9874 53.4611 34.9206C53.7007 34.7608 53.9872 34.6869 54.2742 34.7107H54.9406V34.6734C54.9453 34.5964 54.9333 34.5193 54.9056 34.4474C54.8778 34.3755 54.8349 34.3104 54.7798 34.2565C54.6433 34.1506 54.4722 34.0994 54.3 34.1127C54.1547 34.1117 54.0101 34.1341 53.8719 34.1789C53.7423 34.2192 53.6214 34.2836 53.5156 34.3686L53.2801 33.9288C53.4263 33.8189 53.592 33.7379 53.7685 33.6902C53.9648 33.6351 54.1679 33.608 54.3718 33.6097C54.6895 33.5891 55.003 33.691 55.2481 33.8943ZM54.6994 35.7198C54.8118 35.6547 54.8989 35.5533 54.9464 35.4323V35.1448H54.3287C53.9811 35.1448 53.8087 35.2569 53.8087 35.4869C53.8074 35.5377 53.8185 35.5882 53.841 35.6337C53.8636 35.6793 53.8968 35.7187 53.938 35.7486C54.0452 35.8188 54.172 35.853 54.3 35.8463C54.4423 35.8423 54.5807 35.7985 54.6994 35.7198Z" fill="white"/>
<path d="M57.3712 35.1965H56.9144V36.2315H56.311V33.6442H56.9144V34.6877H57.397L58.1613 33.6442H58.8077L57.8711 34.8861L58.8709 36.2257H58.1613L57.3712 35.1965Z" fill="white"/>
<path d="M61.0713 33.8944C61.1777 34.0017 61.2596 34.1307 61.3117 34.2725C61.3638 34.4144 61.3847 34.5659 61.373 34.7165V36.2316H60.7984V35.9182C60.722 36.0341 60.6115 36.1235 60.4823 36.1741C60.1604 36.3026 59.8016 36.3026 59.4797 36.1741C59.3429 36.1117 59.2264 36.0121 59.1435 35.8866C59.0656 35.7691 59.0246 35.6309 59.0258 35.4898C59.0222 35.3827 59.0437 35.2762 59.0886 35.1789C59.1335 35.0815 59.2005 34.9961 59.2843 34.9293C59.5241 34.7699 59.8105 34.696 60.0974 34.7194H60.7668V34.6821C60.7716 34.6048 60.7595 34.5275 60.7312 34.4555C60.7029 34.3834 60.6592 34.3184 60.6031 34.2652C60.4668 34.1588 60.2955 34.1075 60.1232 34.1214C59.9779 34.1207 59.8334 34.143 59.6951 34.1876C59.5661 34.2272 59.4461 34.2917 59.3418 34.3773L59.1034 33.9375C59.2498 33.8281 59.4155 33.7472 59.5918 33.6989C59.7881 33.6438 59.9912 33.6167 60.195 33.6183C60.5115 33.596 60.8247 33.6947 61.0713 33.8944ZM60.5197 35.7198C60.6333 35.6552 60.7214 35.5538 60.7696 35.4324V35.1449H60.1462C59.7986 35.1449 59.6233 35.257 59.6233 35.487C59.622 35.5378 59.6331 35.5882 59.6557 35.6338C59.6782 35.6794 59.7114 35.7188 59.7526 35.7486C59.861 35.8185 59.9886 35.8527 60.1175 35.8463C60.2608 35.843 60.4003 35.7992 60.5197 35.7198Z" fill="white"/>
<path d="M64.0054 35.1074C64.0929 35.2086 64.14 35.3387 64.1376 35.4725C64.1383 35.6268 64.0809 35.7756 63.9767 35.8893C63.8566 36.0204 63.7054 36.1193 63.5372 36.1768C63.3318 36.2464 63.1161 36.2804 62.8994 36.2774C62.7058 36.277 62.5129 36.2538 62.3248 36.2084C62.1445 36.1636 61.9707 36.096 61.8076 36.0072L61.98 35.5558C62.1136 35.6302 62.2567 35.6863 62.4052 35.7226C62.5605 35.7601 62.7195 35.7794 62.8792 35.78C63.0436 35.7884 63.2075 35.7559 63.3561 35.6852C63.4061 35.6628 63.4486 35.6264 63.4787 35.5806C63.5087 35.5347 63.525 35.4813 63.5257 35.4264C63.527 35.3793 63.5153 35.3327 63.492 35.2916C63.4687 35.2506 63.4347 35.2166 63.3935 35.1936C63.2786 35.1334 63.1495 35.1056 63.02 35.1131H62.5172V34.7049H62.9712C63.0948 34.7115 63.2178 34.6846 63.3274 34.6272C63.3664 34.6065 63.3988 34.5754 63.4211 34.5373C63.4434 34.4993 63.4548 34.4558 63.4538 34.4116C63.4521 34.3633 63.4365 34.3165 63.409 34.2768C63.3815 34.2371 63.3433 34.206 63.2987 34.1874C63.1664 34.127 63.0216 34.0995 62.8764 34.107C62.5936 34.1128 62.3149 34.1764 62.0575 34.2938L61.9024 33.8511C62.2226 33.6969 62.5728 33.6154 62.9281 33.6124C63.1231 33.6119 63.317 33.642 63.5027 33.7016C63.6581 33.7494 63.7987 33.8365 63.9107 33.9546C64.0065 34.0542 64.0601 34.1872 64.0601 34.3254C64.0605 34.4469 64.0188 34.5647 63.9422 34.6589C63.8587 34.763 63.7485 34.8425 63.6234 34.8889C63.7697 34.922 63.9027 34.9981 64.0054 35.1074Z" fill="white"/>
<path d="M39.7908 27.6865L39.752 36.2533L40.3327 36.2559L40.3715 27.6891L39.7908 27.6865Z" fill="white"/>
<path d="M13.5152 11.123V7.20752H0.497566V11.123H7.87836L0.00341797 19.2702V23.1857H13.7191V19.2702H5.6144L13.5152 11.123Z" fill="white"/>
<path d="M20.8643 7.20765V0.828491H16.707V23.1513H20.8643V11.1778H27.2251V23.1513H31.3823V7.20477L20.8643 7.20765Z" fill="white"/>
<path d="M42.819 6.86248C40.6093 6.86248 38.4901 7.74083 36.9276 9.3043C35.3651 10.8678 34.4873 12.9883 34.4873 15.1994C34.4873 17.4105 35.3651 19.531 36.9276 21.0945C38.4901 22.658 40.6093 23.5363 42.819 23.5363C47.4675 23.5363 51.1278 20.0003 51.1278 15.1994C51.146 14.1015 50.9436 13.0111 50.5328 11.9929C50.122 10.9747 49.511 10.0495 48.7361 9.27194C47.9612 8.49444 47.0382 7.88053 46.0218 7.46663C45.0054 7.05274 43.9163 6.84732 42.819 6.86248ZM42.819 10.8067C45.1433 10.8067 46.9418 12.6005 46.9418 15.2137C46.9418 17.8269 45.1433 19.5921 42.819 19.5921C40.4948 19.5921 38.6934 17.824 38.6934 15.2137C38.6934 12.6034 40.4976 10.8067 42.819 10.8067Z" fill="white"/>
<path d="M63.1949 6.86243C63.5042 6.86485 63.8131 6.885 64.12 6.92279V11.1833C63.6948 11.143 63.3558 11.1228 63.1058 11.1228C61.631 11.1228 60.4397 11.5061 59.5318 12.2727C58.624 13.0394 58.1777 14.2947 58.193 16.0388V23.151H54.0415V7.20163H58.1959V9.9873C59.1861 7.90403 60.8525 6.86243 63.1949 6.86243Z" fill="white"/>
<path d="M74.2614 6.86264C72.0517 6.86264 69.9326 7.74099 68.3701 9.30447C66.8076 10.8679 65.9297 12.9885 65.9297 15.1996C65.9297 17.4106 66.8076 19.5312 68.3701 21.0946C69.9326 22.6581 72.0517 23.5365 74.2614 23.5365C78.9099 23.5365 82.5673 20.0005 82.5673 15.1996C82.5851 14.102 82.3826 13.0121 81.9718 11.9943C81.561 10.9764 80.9502 10.0514 80.1757 9.27401C79.4013 8.49662 78.4788 7.88269 77.4629 7.46848C76.447 7.05428 75.3583 6.84827 74.2614 6.86264ZM74.2614 10.8069C76.5857 10.8069 78.3842 12.6007 78.3842 15.2139C78.3842 17.8271 76.5799 19.5894 74.2614 19.5894C71.9429 19.5894 70.1358 17.8213 70.1358 15.211C70.1358 12.6007 71.9343 10.8069 74.2614 10.8069Z" fill="white"/>
<path d="M94.5508 23.1513L99.9262 7.2019H95.6167L92.0743 18.1923L88.5319 7.2019H84.208L89.5805 23.1513H94.5508Z" fill="white"/>
</svg>
