<svg width="24" height="24" viewBox="0 0 24 24" fill="none" xmlns="http://www.w3.org/2000/svg">
<g clip-path="url(#clip0_195_2298)">
<path d="M21.4246 0H2.57543C1.15306 0 0 1.15306 0 2.57543V21.4246C0 22.8469 1.15306 24 2.57543 24H21.4246C22.8469 24 24 22.8469 24 21.4246V2.57543C24 1.15306 22.8469 0 21.4246 0Z" fill="#D8C5A7"/>
<path fill-rule="evenodd" clip-rule="evenodd" d="M12.1308 3.73254C16.6098 3.73254 20.2304 7.35307 20.2304 11.7948C20.2304 16.2738 16.6098 19.8943 12.1308 19.8943C10.7125 19.8943 9.33145 19.521 8.17437 18.8865L3.77002 20.2675L5.15105 15.9378C4.44187 14.7434 4.03129 13.3251 4.03129 11.7948C4.03129 7.35307 7.65182 3.73254 12.1308 3.73254ZM10.2646 11.1976C10.2646 11.1976 10.8618 12.168 11.8322 12.9518C12.8027 13.6983 13.3252 13.8476 13.3252 13.8476C13.3252 13.8476 14.1837 12.7652 14.2957 12.7652C14.4077 12.7279 15.1542 13.0638 15.4901 13.2504C15.7887 13.3997 16.2366 13.661 16.2366 13.773C16.2366 13.8476 16.1993 14.5195 15.9753 14.7808C15.7514 15.0047 15.1168 15.6019 14.5196 15.5273C11.6083 15.3033 8.92088 12.6532 8.43565 10.7123C8.361 10.3764 8.39832 9.07002 8.6596 8.7341C8.9582 8.39817 9.14482 8.17422 9.51808 8.1369C9.89133 8.09957 10.1153 8.1369 10.2273 8.39817C10.3766 8.65945 10.9364 9.9285 10.9738 10.0778C11.0111 10.2271 10.2273 10.9736 10.2646 11.1976ZM9.1075 17.8414C10.0033 18.2893 11.0484 18.5506 12.1308 18.5506C15.8633 18.5506 18.8493 15.5273 18.8493 11.7948C18.8493 8.09957 15.8633 5.07625 12.1308 5.07625C8.39832 5.07625 5.375 8.09957 5.375 11.7948C5.375 13.2504 5.86022 14.5941 6.60672 15.6766L5.86022 18.252L8.43565 17.4682L9.1075 17.8414Z" fill="white"/>
<path fill-rule="evenodd" clip-rule="evenodd" d="M20.2304 11.7947C20.2304 18.028 13.5119 21.8725 8.17437 18.8865L3.77002 20.2675L7.50252 24H21.3874L24.0002 21.3872V12.4666L18.8867 7.35303C19.7078 8.62208 20.2304 10.1524 20.2304 11.7947Z" fill="#B5A284"/>
<path fill-rule="evenodd" clip-rule="evenodd" d="M9.10715 17.8413C13.5115 20.0435 18.849 16.8709 18.849 11.7947C18.849 8.0995 15.863 5.07617 12.1305 5.07617C6.6437 5.07617 3.50839 11.2721 6.60637 15.6765L5.85987 18.2519L8.4353 17.4681L9.10715 17.8413ZM14.5193 15.5272C11.6079 15.3032 8.92052 12.6532 8.4353 10.7123C8.24867 9.92843 8.47262 8.2488 9.51772 8.13683C9.89097 8.0995 10.1149 8.13683 10.2269 8.3981C10.3762 8.65938 10.9361 9.92843 10.9734 10.0777C11.0107 10.227 10.2269 10.9735 10.2642 11.1975C10.6748 11.9067 12.2425 13.5863 13.3249 13.8476C14.37 12.5412 14.1087 12.5412 15.4897 13.2504C15.7883 13.3997 16.2362 13.6609 16.2362 13.7729C16.2362 14.8927 15.2285 15.6018 14.5193 15.5272Z" fill="#B5A284"/>
</g>
<defs>
<clipPath id="clip0_195_2298">
<rect width="24" height="24" fill="white"/>
</clipPath>
</defs>
</svg>
