<svg width="100" height="38" fill="none" xmlns="http://www.w3.org/2000/svg"><path d="M1.08 29.387H.603v1.032H0V27.83h.603v1.047h.486l.761-1.047h.65l-.94 1.245 1 1.337h-.71l-.77-1.026zM3.353 30.284a1.233 1.233 0 01-.491-.472 1.418 1.418 0 010-1.366c.117-.198.287-.36.491-.468.217-.114.459-.173.704-.17a1.49 1.49 0 01.712.17c.204.108.373.27.489.468a1.398 1.398 0 010 1.366c-.115.2-.285.363-.489.471a1.46 1.46 0 01-.712.17 1.436 1.436 0 01-.704-.17zm1.255-.575a.892.892 0 000-1.17.73.73 0 00-.551-.222.717.717 0 00-.546.221.903.903 0 000 1.17.719.719 0 00.546.222.73.73 0 00.551-.216v-.005zM8.565 30.419v-1.725l-.862 1.437h-.261l-.862-1.437v1.725h-.549V27.83h.632l.917 1.616.962-1.616h.575v2.588h-.552zM12.397 27.837v2.587h-.589v-2.067h-1.272v2.067h-.604v-2.587h2.465zM15.544 27.837v2.587h-.604v-2.067h-.965l-.026.512c-.008.29-.04.578-.095.863-.03.199-.112.387-.235.546a.574.574 0 01-.457.201 1.373 1.373 0 01-.333-.052l.028-.509c.039.01.078.015.118.015a.287.287 0 00.273-.147.864.864 0 00.12-.353c.018-.138.032-.334.047-.575l.043-.998 2.086-.023zM18.77 29.323h-2.011a.7.7 0 00.287.452.904.904 0 00.558.166.942.942 0 00.7-.287l.325.374c-.117.14-.268.248-.44.313-.19.074-.395.11-.6.106a1.565 1.565 0 01-.747-.17 1.218 1.218 0 01-.5-.47 1.328 1.328 0 01-.178-.685 1.345 1.345 0 01.173-.678c.111-.2.276-.363.477-.472a1.456 1.456 0 011.358 0c.197.11.358.272.466.469.113.215.17.455.166.698a.528.528 0 00-.034.184zm-1.784-.862a.719.719 0 00-.244.457h1.462a.708.708 0 00-.236-.454.79.79 0 00-.982 0v-.003zM20.514 29.387h-.468v1.032h-.604V27.83h.604v1.047h.482l.765-1.047h.646l-.937 1.245 1 1.337h-.712l-.776-1.026zM24.45 28.352h-.905v2.067h-.604v-2.067h-.907v-.515h2.416v.515zM26.71 28.081a1.06 1.06 0 01.302.826v1.512h-.575v-.314a.724.724 0 01-.316.259 1.24 1.24 0 01-.496.09 1.204 1.204 0 01-.506-.099.768.768 0 01-.336-.287.69.69 0 01-.121-.4.68.68 0 01.259-.557c.24-.16.528-.234.816-.21h.666v-.04a.533.533 0 00-.16-.415.704.704 0 00-.483-.146c-.146 0-.29.023-.429.069-.129.038-.249.102-.353.187l-.238-.44a1.46 1.46 0 01.488-.236c.196-.056.4-.084.603-.083.319-.02.633.082.88.284zm-.551 1.829a.575.575 0 00.25-.288v-.302h-.624c-.347 0-.523.115-.523.345a.307.307 0 00.133.262c.107.07.234.102.362.095a.775.775 0 00.416-.112h-.014zM30.592 29.907v1.107h-.575v-.595H27.75V27.83h.604v2.07h1.232v-2.07h.604v2.07l.402.006zM31.129 27.808h.603v1.702l1.437-1.702h.551v2.588h-.603v-1.702l-1.437 1.702h-.554l.003-2.588zM36.7 27.837v2.587h-.54v-.776h-.68l-.53.776h-.646l.61-.862a.862.862 0 01-.429-.288.822.822 0 01-.146-.497.813.813 0 01.313-.684 1.37 1.37 0 01.862-.244l1.186-.012zm-1.75.949c0 .287.19.434.575.434h.644v-.863h-.624c-.396-.007-.594.136-.594.429zM.009 33.638h.603v1.702l1.437-1.702H2.6v2.588h-.603v-1.7l-1.42 1.7H.02L.01 33.638zM3.402 33.638h.603v1.05h1.299v-1.05h.603v2.588h-.603v-1.018H4.005v1.018h-.603v-2.588zM8.763 34.153H7.86v2.067h-.604v-2.067H6.35v-.515h2.413v.515zM11.499 35.125H9.488a.699.699 0 00.287.451c.163.116.36.175.56.167a.933.933 0 00.699-.288l.324.374c-.117.14-.268.248-.44.313a1.739 1.739 0 01-1.347-.063 1.218 1.218 0 01-.5-.471 1.329 1.329 0 01-.178-.685 1.346 1.346 0 01.173-.678c.105-.19.258-.347.445-.457a1.39 1.39 0 01.687-.17 1.37 1.37 0 01.672.167c.196.11.357.272.465.469.113.215.17.455.167.698.02.035.003.095-.003.173zm-1.784-.863a.719.719 0 00-.244.457h1.465a.71.71 0 00-.239-.454.79.79 0 00-.982 0v-.003zM14.273 33.788c.197.107.359.268.468.463.115.211.172.45.167.69.005.242-.052.482-.167.695-.11.197-.271.358-.468.466a1.37 1.37 0 01-.672.164 1.043 1.043 0 01-.828-.348v1.254h-.603V33.65h.575v.34a.982.982 0 01.37-.288 1.34 1.34 0 011.158.086zm-.193 1.74a.903.903 0 000-1.17.723.723 0 00-.548-.222.771.771 0 00-.391.098.74.74 0 00-.287.287.886.886 0 00-.1.425.864.864 0 00.1.426.73.73 0 00.287.288c.12.066.254.1.39.097a.722.722 0 00.55-.244v.014zM17.555 34.714a.774.774 0 01.264.626.797.797 0 01-.287.658 1.258 1.258 0 01-.816.228h-1.21v-2.588h.604v.848h.692c.27-.015.536.066.753.228zm-.491.957a.41.41 0 00.14-.34.38.38 0 00-.135-.319.694.694 0 00-.41-.106h-.552v.877h.551a.574.574 0 00.411-.112h-.005zM20.76 35.125h-2.01a.716.716 0 00.287.451.904.904 0 00.557.167.942.942 0 00.701-.288l.325.374c-.118.14-.27.248-.44.313-.191.074-.395.11-.6.107a1.565 1.565 0 01-.747-.17 1.218 1.218 0 01-.5-.471 1.329 1.329 0 01-.178-.685 1.347 1.347 0 01.172-.678c.112-.199.277-.362.477-.471a1.456 1.456 0 011.36 0c.195.108.355.27.462.468.113.215.17.456.166.699a.785.785 0 00-.031.184zm-1.783-.863a.72.72 0 00-.245.457h1.463a.707.707 0 00-.236-.454.79.79 0 00-.982 0v-.003zM23.536 33.788c.197.106.359.267.466.463.116.21.175.449.17.69.005.242-.054.482-.17.695a1.17 1.17 0 01-.466.466 1.37 1.37 0 01-.672.164 1.04 1.04 0 01-.828-.348v1.254h-.603V33.65h.575v.34a.982.982 0 01.37-.288 1.34 1.34 0 011.158.086zm-.192 1.74a.903.903 0 000-1.17.725.725 0 00-.55-.222.772.772 0 00-.39.098.704.704 0 00-.287.287.865.865 0 00-.1.425.841.841 0 00.1.426.694.694 0 00.287.288c.12.066.254.1.39.097a.727.727 0 00.55-.244v.014zM25.217 36.088a1.232 1.232 0 01-.491-.472 1.419 1.419 0 010-1.365c.117-.199.287-.361.491-.469.217-.115.46-.173.704-.17.247-.003.491.055.71.17.204.108.374.27.491.469a1.418 1.418 0 010 1.365c-.116.2-.286.364-.491.472a1.436 1.436 0 01-.71.17 1.436 1.436 0 01-.704-.17zm1.256-.575a.892.892 0 000-1.17.738.738 0 00-.552-.222.729.729 0 00-.549.222.903.903 0 000 1.17.727.727 0 00.55.221.737.737 0 00.54-.221h.01zM30.239 35.495a.627.627 0 01-.259.538c-.232.14-.502.206-.772.187h-1.31v-2.587h1.26a1.34 1.34 0 01.74.175.555.555 0 01.266.495.575.575 0 01-.103.342.672.672 0 01-.288.227.598.598 0 01.466.623zm-1.773-.778h.635c.31 0 .469-.107.469-.322 0-.216-.159-.317-.469-.317h-.629l-.006.639zm1.19.741a.289.289 0 00-.115-.256.638.638 0 00-.365-.083h-.704v.661h.692c.325 0 .492-.106.492-.322zM43.201 27.75h.603v1.726l1.437-1.702h.552v2.587h-.604V28.66l-1.436 1.702h-.555l.003-2.61zM48.477 29.22a.543.543 0 01.132.365.618.618 0 01-.161.417c-.12.132-.27.231-.44.287-.204.072-.42.107-.637.104-.194 0-.387-.024-.575-.072a2.055 2.055 0 01-.517-.199l.175-.45c.133.074.276.13.425.163.154.04.313.06.471.06a.993.993 0 00.477-.095.286.286 0 00.173-.258.26.26 0 00-.135-.233.704.704 0 00-.374-.083h-.503v-.406h.446a.689.689 0 00.356-.077.238.238 0 00.126-.216.245.245 0 00-.152-.224.924.924 0 00-.425-.08 2.026 2.026 0 00-.819.186l-.152-.445c.32-.153.669-.233 1.023-.236.2-.004.399.026.589.089a.945.945 0 01.408.253.52.52 0 01.149.368.526.526 0 01-.118.336.766.766 0 01-.319.23.752.752 0 01.377.216zM51.218 28.274h-1.376v2.07h-.604v-2.587h1.98v.517zM51.99 30.209a1.25 1.25 0 01-.491-.472 1.34 1.34 0 01-.175-.684c-.005-.24.056-.476.175-.684.118-.198.288-.36.491-.469a1.562 1.562 0 011.416 0c.203.108.373.27.489.469.12.208.181.444.178.684.003.24-.059.476-.178.684-.115.2-.285.364-.489.472a1.587 1.587 0 01-1.416 0zm1.255-.575a.892.892 0 000-1.17.79.79 0 00-1.097 0 .903.903 0 000 1.17.79.79 0 001.097 0zM56.628 28.274h-.902v2.07h-.604v-2.07h-.908v-.523h2.414v.523zM57.389 30.209a1.25 1.25 0 01-.492-.472 1.343 1.343 0 01-.178-.684c-.003-.24.058-.476.178-.684.119-.198.288-.36.492-.469.216-.114.458-.173.704-.17.247-.003.49.055.71.17.203.109.373.27.49.469.12.208.18.445.176.684a1.34 1.34 0 01-.175.684 1.25 1.25 0 01-.492.472 1.479 1.479 0 01-.71.167 1.457 1.457 0 01-.703-.167zm1.255-.575a.904.904 0 000-1.17.75.75 0 00-.551-.221.74.74 0 00-.55.22.903.903 0 000 1.17.728.728 0 00.55.222.738.738 0 00.545-.218l.006-.003zM62.41 29.617a.627.627 0 01-.258.537 1.315 1.315 0 01-.773.19h-1.304v-2.587h1.26c.258-.015.515.045.74.172a.555.555 0 01.267.495.575.575 0 01-.104.342.672.672 0 01-.287.227.598.598 0 01.46.624zm-1.772-.777h.635c.31 0 .468-.109.468-.324 0-.216-.158-.314-.468-.314h-.624l-.011.638zm1.19.74a.288.288 0 00-.116-.254.615.615 0 00-.365-.086h-.698v.664h.693c.319 0 .485-.11.485-.325zM65.392 27.75v2.588h-.603v-2.07h-.965l-.026.512c-.009.29-.04.578-.095.862a1.212 1.212 0 01-.236.547.574.574 0 01-.456.198 1.373 1.373 0 01-.334-.052l.029-.509a.46.46 0 00.115.015.301.301 0 00.287-.147.862.862 0 00.12-.354c.018-.135.032-.33.047-.575l.043-.994 2.074-.02zM68.61 29.246h-2.025a.716.716 0 00.288.451.905.905 0 00.557.167.939.939 0 00.701-.288l.325.371c-.117.14-.269.249-.44.314a1.75 1.75 0 01-1.347-.06 1.236 1.236 0 01-.5-.472 1.417 1.417 0 010-1.366c.112-.198.277-.361.477-.471a1.456 1.456 0 011.359 0c.196.11.356.273.462.471.116.214.174.455.17.699a.879.879 0 00-.026.184zm-1.783-.863a.718.718 0 00-.244.457h1.462a.707.707 0 00-.236-.454.723.723 0 00-.494-.172.732.732 0 00-.488.172v-.003zM69.283 27.75h.603v1.047h1.3v-1.046h.605v2.587h-.606v-1.02h-1.299v1.02h-.603v-2.587zM72.602 27.75h.603v1.726l1.436-1.702h.552v2.587h-.603V28.66l-1.42 1.702h-.557l-.011-2.61zM78.398 29.246h-2.01a.7.7 0 00.286.451.905.905 0 00.558.167.94.94 0 00.7-.288l.325.371c-.117.14-.268.249-.44.314a1.75 1.75 0 01-1.346-.06 1.237 1.237 0 01-.5-.472 1.419 1.419 0 010-1.366c.112-.198.277-.361.477-.471a1.456 1.456 0 011.358 0c.197.11.358.274.466.471.114.215.17.456.166.699a.406.406 0 00-.04.184zm-1.784-.863a.719.719 0 00-.244.457h1.462a.707.707 0 00-.235-.454.723.723 0 00-.494-.172.732.732 0 00-.489.172v-.003zM83.492 30.295V28.57l-.862 1.438h-.261l-.862-1.438v1.725h-.549v-2.587h.632l.917 1.613.962-1.613h.575v2.587h-.552zM87.256 29.188h-2.01a.685.685 0 00.287.452.9.9 0 00.557.166.945.945 0 00.701-.287l.322.37c-.118.141-.27.25-.44.317-.19.072-.393.108-.597.106a1.603 1.603 0 01-.75-.17 1.237 1.237 0 01-.5-.47 1.332 1.332 0 01-.175-.685 1.355 1.355 0 01.17-.681c.112-.199.277-.362.476-.472.21-.113.447-.17.687-.167.235-.004.466.054.672.167.197.109.358.271.465.469.114.215.171.455.167.698a1.663 1.663 0 01-.032.187zm-1.784-.862a.716.716 0 00-.244.454h1.465a.708.708 0 00-.73-.627.732.732 0 00-.49.187v-.014zM89.974 27.995c.183.103.334.254.437.437.106.198.16.42.155.644.004.232-.056.46-.172.661a1.184 1.184 0 01-.489.446c-.222.11-.467.165-.715.16a1.269 1.269 0 01-1.037-.445 1.955 1.955 0 01-.368-1.282 2.059 2.059 0 01.333-1.233 1.614 1.614 0 011.02-.598l1.198-.256.086.54-1.086.222c-.26.04-.504.155-.7.33-.166.179-.261.41-.27.653a1.18 1.18 0 01.419-.322 1.29 1.29 0 01.54-.115c.226-.004.45.05.65.158zm-.23 1.645a.774.774 0 00.204-.55.7.7 0 00-.744-.738.75.75 0 00-.546.2.723.723 0 00-.207.538.751.751 0 00.21.552.735.735 0 00.543.213.712.712 0 00.54-.215zM93.557 29.188h-2.011a.686.686 0 00.287.452.9.9 0 00.557.166.946.946 0 00.701-.287l.322.37c-.118.141-.269.25-.44.317-.19.072-.393.108-.597.106a1.602 1.602 0 01-.75-.17 1.236 1.236 0 01-.5-.47 1.332 1.332 0 01-.175-.685 1.356 1.356 0 01.17-.681c.112-.199.277-.362.476-.472.211-.113.448-.17.687-.167.235-.004.467.054.672.167.193.118.347.288.446.492a1.437 1.437 0 01.155.862zm-1.784-.862a.705.705 0 00-.245.454h1.466a.707.707 0 00-.73-.627.726.726 0 00-.491.187v-.014zM96.533 27.713v2.588h-.603v-2.07h-.965l-.026.511a5.7 5.7 0 01-.092.863 1.244 1.244 0 01-.239.546.573.573 0 01-.456.201 1.39 1.39 0 01-.334-.054l.03-.506c.038.003.078.003.117 0a.302.302 0 00.273-.15.83.83 0 00.12-.353c.018-.135.032-.33.046-.575l.044-.995 2.085-.006zM97.346 27.713h.603v1.702l1.437-1.702h.552v2.588h-.604v-1.702L97.898 30.3h-.555l.003-2.588zM43.202 33.65h.603v1.05h1.301v-1.05h.604v2.587h-.604v-1.012h-1.301v1.021h-.603V33.65zM48.356 33.894a1.054 1.054 0 01.302.822v1.515h-.575v-.313a.684.684 0 01-.316.256c-.322.128-.68.128-1.003 0a.802.802 0 01-.336-.288.709.709 0 01-.118-.396.688.688 0 01.259-.56c.24-.16.526-.235.813-.21h.667v-.038a.527.527 0 00-.161-.417.689.689 0 00-.48-.144 1.358 1.358 0 00-.428.066c-.13.04-.25.105-.356.19l-.236-.44c.147-.109.312-.19.488-.238.197-.055.4-.082.604-.08.316-.023.63.076.876.275zm-.552 1.826a.546.546 0 00.247-.288v-.287h-.617c-.348 0-.52.112-.52.342a.314.314 0 00.129.261c.108.07.234.104.362.098a.762.762 0 00.4-.126zM52.654 35.107c.088.1.135.231.132.365a.61.61 0 01-.158.417c-.12.131-.272.23-.44.288-.205.07-.42.103-.638.1-.193 0-.386-.023-.574-.069a2.113 2.113 0 01-.515-.2l.173-.452c.133.074.276.13.425.167.155.037.314.056.474.057a.992.992 0 00.477-.095.288.288 0 00.17-.259.259.259 0 00-.133-.232.716.716 0 00-.373-.08h-.506v-.41h.454a.672.672 0 00.353-.077.235.235 0 00.13-.215.254.254 0 00-.155-.225.919.919 0 00-.426-.08c-.281.006-.56.07-.816.187l-.155-.443a2.41 2.41 0 011.026-.239c.195 0 .389.03.575.09a.961.961 0 01.408.253c.095.1.147.233.146.37a.523.523 0 01-.115.334.246.246 0 00-.3.147.248.248 0 00.355.304l.005-.003zM55.248 33.894a1.054 1.054 0 01.302.823v1.514h-.575v-.313a.684.684 0 01-.316.256 1.225 1.225 0 01-.497.092 1.203 1.203 0 01-.506-.1.767.767 0 01-.336-.288.708.708 0 01-.117-.397.687.687 0 01.258-.56c.24-.16.526-.234.813-.21h.667v-.038a.538.538 0 00-.161-.416.695.695 0 00-.48-.144 1.358 1.358 0 00-.428.066c-.13.04-.25.105-.356.19l-.236-.44c.146-.11.312-.191.489-.239.196-.055.399-.082.603-.08.318-.02.631.081.876.284zM54.7 35.72a.575.575 0 00.247-.288v-.287h-.617c-.348 0-.52.112-.52.342a.313.313 0 00.129.262c.107.07.234.104.362.097a.762.762 0 00.4-.126zM57.371 35.197h-.457v1.034h-.603v-2.587h.603v1.044h.483l.764-1.044h.647l-.937 1.242 1 1.34h-.71l-.79-1.03zM61.071 33.894a1.052 1.052 0 01.302.823v1.515h-.575v-.314a.672.672 0 01-.316.256c-.322.129-.68.129-1.002 0a.802.802 0 01-.336-.287.707.707 0 01-.118-.397.687.687 0 01.258-.56c.24-.16.526-.234.813-.21h.67v-.038a.53.53 0 00-.164-.417.69.69 0 00-.48-.144c-.145 0-.29.022-.428.067-.129.04-.249.104-.353.19l-.239-.44c.147-.11.313-.19.489-.24.196-.054.4-.081.603-.08.316-.022.63.077.876.276zm-.551 1.826a.574.574 0 00.25-.288v-.287h-.624c-.347 0-.523.112-.523.342a.313.313 0 00.13.262c.108.07.236.104.364.097a.758.758 0 00.403-.126zM64.005 35.107a.543.543 0 01.133.365.613.613 0 01-.161.417c-.12.131-.272.23-.44.288-.205.07-.42.103-.638.1-.193 0-.386-.023-.574-.069a2.182 2.182 0 01-.517-.2l.172-.452c.134.074.277.13.425.167.155.037.314.056.474.057a.992.992 0 00.477-.095.288.288 0 00.17-.259.259.259 0 00-.133-.232.716.716 0 00-.373-.08h-.503v-.41h.454a.689.689 0 00.356-.077.238.238 0 00.082-.35.253.253 0 00-.11-.09.904.904 0 00-.423-.08c-.282.006-.561.07-.819.187l-.155-.443a2.41 2.41 0 011.026-.239c.195 0 .389.03.575.09a.945.945 0 01.408.253.535.535 0 01.031.704.737.737 0 01-.319.23c.147.033.28.11.382.218zM39.79 27.686l-.038 8.567.58.003.04-8.567-.581-.003zM13.515 11.123V7.208H.498v3.915h7.38L.003 19.27v3.916H13.72V19.27H5.614l7.901-8.147zM20.864 7.208V.828h-4.157v22.323h4.157V11.178h6.361V23.15h4.157V7.205l-10.518.003zM42.819 6.862a8.33 8.33 0 00-5.891 2.442 8.34 8.34 0 005.891 14.232c4.648 0 8.309-3.536 8.309-8.337a8.207 8.207 0 00-5.106-7.732 8.192 8.192 0 00-3.203-.605zm0 3.945c2.324 0 4.123 1.793 4.123 4.407 0 2.613-1.799 4.378-4.123 4.378-2.324 0-4.126-1.768-4.126-4.378 0-2.61 1.805-4.407 4.126-4.407zM63.195 6.862c.31.003.618.023.925.06v4.261c-.425-.04-.764-.06-1.014-.06-1.475 0-2.666.383-3.574 1.15-.908.766-1.354 2.022-1.339 3.766v7.112h-4.151V7.201h4.154v2.786c.99-2.083 2.657-3.125 4.999-3.125zM74.261 6.863c-2.21 0-4.328.878-5.89 2.441a8.34 8.34 0 005.89 14.232c4.649 0 8.306-3.536 8.306-8.336a8.208 8.208 0 00-5.104-7.732 8.196 8.196 0 00-3.202-.605zm0 3.944c2.325 0 4.123 1.794 4.123 4.407s-1.804 4.375-4.123 4.375c-2.318 0-4.125-1.768-4.125-4.378 0-2.61 1.798-4.404 4.125-4.404zM94.55 23.151l5.376-15.95h-4.31l-3.542 10.991-3.542-10.99h-4.324l5.373 15.95h4.97z" fill="#fff"/></svg>