<svg width="24" height="24" fill="none" xmlns="http://www.w3.org/2000/svg"><g clip-path="url(#clip0_195_2298)"><path d="M21.425 0H2.575A2.575 2.575 0 000 2.575v18.85A2.575 2.575 0 002.575 24h18.85A2.575 2.575 0 0024 21.425V2.575A2.575 2.575 0 0021.425 0z" fill="#D8C5A7"/><path fill-rule="evenodd" clip-rule="evenodd" d="M12.13 3.733c4.48 0 8.1 3.62 8.1 8.062 0 4.479-3.62 8.1-8.1 8.1-1.418 0-2.799-.374-3.956-1.008l-4.404 1.38 1.381-4.33a8.09 8.09 0 01-1.12-4.142c0-4.442 3.62-8.062 8.1-8.062zm-1.865 7.465s.597.97 1.567 1.754c.97.746 1.493.896 1.493.896s.859-1.083.97-1.083c.113-.037.86.299 1.195.485.299.15.747.411.747.523 0 .075-.038.747-.262 1.008-.224.224-.858.82-1.455.746-2.912-.224-5.6-2.874-6.084-4.815-.075-.336-.038-1.642.224-1.978.298-.336.485-.56.858-.597.373-.037.597 0 .71.261.149.261.708 1.53.746 1.68.037.15-.747.896-.71 1.12zM9.107 17.84c.896.448 1.941.71 3.024.71 3.732 0 6.718-3.024 6.718-6.756a6.714 6.714 0 00-6.718-6.719c-3.733 0-6.756 3.024-6.756 6.719 0 1.455.485 2.8 1.232 3.882l-.747 2.575 2.576-.784.671.373z" fill="#fff"/><path fill-rule="evenodd" clip-rule="evenodd" d="M20.23 11.795c0 6.233-6.718 10.077-12.056 7.092l-4.404 1.38L7.503 24h13.884L24 21.387v-8.92l-5.113-5.114c.82 1.27 1.343 2.8 1.343 4.442z" fill="#B5A284"/><path fill-rule="evenodd" clip-rule="evenodd" d="M9.107 17.841c4.405 2.203 9.742-.97 9.742-6.046a6.714 6.714 0 00-6.719-6.719c-5.486 0-8.622 6.196-5.524 10.6l-.746 2.576 2.575-.784.672.373zm5.412-2.314c-2.911-.224-5.598-2.874-6.084-4.815-.186-.784.038-2.463 1.083-2.575.373-.037.597 0 .709.261.15.261.71 1.53.746 1.68.038.149-.746.896-.709 1.12.41.709 1.979 2.388 3.06 2.65 1.046-1.307.785-1.307 2.166-.598.298.15.746.41.746.523 0 1.12-1.008 1.829-1.717 1.754z" fill="#B5A284"/></g><defs><clipPath id="clip0_195_2298"><path fill="#fff" d="M0 0h24v24H0z"/></clipPath></defs></svg>